<svg width="72" height="72" viewBox="0 0 72 72" fill="none" xmlns="http://www.w3.org/2000/svg">
<circle cx="36" cy="36" r="34" fill="white" stroke="#F0F4FB" stroke-width="4"/>
<path fill-rule="evenodd" clip-rule="evenodd" d="M36 16C35.1113 16 34.3908 16.7205 34.3908 17.6092V34.3908H17.6092C16.7205 34.3908 16 35.1112 16 36C16 36.8887 16.7205 37.6092 17.6092 37.6092H34.3908V54.3908C34.3908 55.2795 35.1113 56 36 56C36.8888 56 37.6092 55.2795 37.6092 54.3908V37.6092H54.3908C55.2795 37.6092 56 36.8887 56 36C56 35.1112 55.2795 34.3908 54.3908 34.3908H37.6092V17.6092C37.6092 16.7205 36.8888 16 36 16Z" fill="#BCCEEA"/>
</svg>
