<svg width="20" height="20" viewBox="0 0 20 20" fill="none" xmlns="http://www.w3.org/2000/svg">
<path d="M9.16665 9.99996C9.16665 10.4602 9.53974 10.8333 9.99998 10.8333C10.4602 10.8333 10.8333 10.4602 10.8333 9.99996C10.8333 9.53972 10.4602 9.16663 9.99998 9.16663C9.53974 9.16663 9.16665 9.53972 9.16665 9.99996Z" fill="#2C3E50" stroke="#2C3E50" stroke-width="1.25" stroke-linecap="round" stroke-linejoin="round"/>
<path d="M3.33333 9.99996C3.33333 10.4602 3.70643 10.8333 4.16667 10.8333C4.6269 10.8333 5 10.4602 5 9.99996C5 9.53972 4.6269 9.16663 4.16667 9.16663C3.70643 9.16663 3.33333 9.53972 3.33333 9.99996Z" fill="#2C3E50" stroke="#2C3E50" stroke-width="1.25" stroke-linecap="round" stroke-linejoin="round"/>
<path d="M15 9.99996C15 10.4602 15.3731 10.8333 15.8334 10.8333C16.2936 10.8333 16.6667 10.4602 16.6667 9.99996C16.6667 9.53972 16.2936 9.16663 15.8334 9.16663C15.3731 9.16663 15 9.53972 15 9.99996Z" fill="#2C3E50" stroke="#2C3E50" stroke-width="1.25" stroke-linecap="round" stroke-linejoin="round"/>
</svg>
