<svg width="20" height="20" viewBox="0 0 20 20" fill="none" xmlns="http://www.w3.org/2000/svg">
<path d="M3.33334 5.83337H16.6667" stroke="#2C3E50" stroke-width="1.25" stroke-linecap="round" stroke-linejoin="round"/>
<path d="M8.33334 9.16663V14.1666" stroke="#2C3E50" stroke-width="1.25" stroke-linecap="round" stroke-linejoin="round"/>
<path d="M11.6667 9.16663V14.1666" stroke="#2C3E50" stroke-width="1.25" stroke-linecap="round" stroke-linejoin="round"/>
<path d="M4.16666 5.83337L4.99999 15.8334C4.99999 16.2754 5.17558 16.6993 5.48815 17.0119C5.80071 17.3244 6.22463 17.5 6.66666 17.5H13.3333C13.7754 17.5 14.1993 17.3244 14.5118 17.0119C14.8244 16.6993 15 16.2754 15 15.8334L15.8333 5.83337" stroke="#2C3E50" stroke-width="1.25" stroke-linecap="round" stroke-linejoin="round"/>
<path d="M7.5 5.83333V3.33333C7.5 3.11232 7.5878 2.90036 7.74408 2.74408C7.90036 2.5878 8.11232 2.5 8.33333 2.5H11.6667C11.8877 2.5 12.0996 2.5878 12.2559 2.74408C12.4122 2.90036 12.5 3.11232 12.5 3.33333V5.83333" stroke="#2C3E50" stroke-width="1.25" stroke-linecap="round" stroke-linejoin="round"/>
</svg>
